<?xml version="1.0" encoding="iso-8859-1"?>
<!-- Generator: Adobe Illustrator 19.0.0, SVG Export Plug-In . SVG Version: 6.00 Build 0)  -->
<svg version="1.1" id="Capa_1" xmlns="http://www.w3.org/2000/svg" xmlns:xlink="http://www.w3.org/1999/xlink" x="0px" y="0px"
	 viewBox="0 0 512 512" style="enable-background:new 0 0 512 512;" xml:space="preserve">
<g>
	<g>
		<path d="M504.109,164.096c-2.227-1.198-4.67-1.792-7.109-1.792c-2.887,0-5.764,0.832-8.262,2.48L256,318.361L23.261,164.785
			c-2.497-1.648-5.376-2.48-8.263-2.48c-2.437,0-4.883,0.594-7.107,1.792C3.031,166.712,0,171.785,0,177.305V497
			c0,8.284,6.715,15,15,15h482c8.283,0,15-6.716,15-15V177.305C512,171.785,508.969,166.712,504.109,164.096z"/>
	</g>
</g>
<g>
	<g>
		<path d="M264.32,2.519c-5.039-3.359-11.603-3.359-16.64,0L40.817,140.426L256,282.418l215.181-141.992L264.32,2.519z"/>
	</g>
</g>
<g>
</g>
<g>
</g>
<g>
</g>
<g>
</g>
<g>
</g>
<g>
</g>
<g>
</g>
<g>
</g>
<g>
</g>
<g>
</g>
<g>
</g>
<g>
</g>
<g>
</g>
<g>
</g>
<g>
</g>
</svg>
